{"title":"Irene Huss, The Shelter Of Shadows 2011 DVDrip Swedish Klam","uid":6937509,"size":1537797552,"categoryP":"video","categoryS":"movies","magnet":"?xt=urn:btih:e8af0a8db8db1ec9b5c72ecc3cd3f477d952c85b&amp;dn=Irene+Huss%2C+The+Shelter+Of+Shadows+2011+DVDrip+Swedish+Klam&amp;tr=udp%3A%2F%2Ftracker.openbittorrent.com%3A80&amp;tr=udp%3A%2F%2Fopen.demonii.com%3A1337&amp;tr=udp%3A%2F%2Ftracker.coppersurfer.tk%3A6969&amp;tr=udp%3A%2F%2Fexodus.desync.com%3A6969","seeders":1,"leechers":1,"uploader":"Klambake","files":-1,"time":1325877722,"description":"With: Angela Kovacs, Lars Brandeby and Anki LidÃƒÂ©n\nEen man wordt gevonden vermoord in de haven. Irene Huss en haar team zitten op de zaak en alles wijst in de richting van de onderwereld.\n\nA man is found executed in the port. Irene Huss and her team are put on the case and everything points to a settlement in the underworld. But eventually Irene realizes that the case has a personal connection. After a bombing, she is suddenly embroiled in a blackmail tangle where no one is safe...\n\n------------------------ Dutch Friends ------------------------\n---------------------------------------------------------------\n- Bezoek ook eens mijn vrienden op: &lt;a href=&quot; http://www.Film-Test.nl&quot; rel=&quot;nofollow&quot; target=&quot;_NEW&quot;&gt; http://www.Film-Test.nl&lt;/a&gt; --\n----- voor mijn Nederlandse Sync. ondertitels ---- en meer ----\n------- http://www.Film-Test.nl ---- voor Films en meer -------\n---------------------------------------------------------------\n\nGeneral:\n\nComplete name                    : The Shelter Of Shadows\\The Shelter Of Shadows.avi\nFormat                           : AVI\nFormat/Info                      : Audio Video Interleave\nFile size                        : 1.43 GiB\nDuration                         : 1h 29mn\nOverall bit rate                 : 2 294 Kbps\n\nVideo:\n\nFormat                           : MPEG-4 Visual\nFormat profile                   : Simple@L3\nFormat settings, BVOP            : No\nFormat settings, QPel            : No\nFormat settings, GMC             : No warppoints\nFormat settings, Matrix          : Default (H.263)\nCodec ID                         : XVID\nCodec ID/Hint                    : XviD\nDuration                         : 1h 29mn\nBit rate                         : 1 835 Kbps\nWidth                            : 652 pixels\nHeight                           : 352 pixels\nDisplay aspect ratio             : 1.852\nFrame rate                       : 25.000 fps\nColor space                      : YUV\nChroma subsampling               : 4:2:0\nBit depth                        : 8 bits\nScan type                        : Progressive\nCompression mode                 : Lossy\nBits/(Pixel*Frame)               : 0.320\nStream size                      : 1.15 GiB (80%)\nWriting library                  : XviD 1.1.2 (UTC 2006-11-01)\n\nAudio:\n\nFormat                           : AC-3\nFormat/Info                      : Audio Coding 3\nMode extension                   : CM (complete main)\nCodec ID                         : 2000\nDuration                         : 1h 29mn\nBit rate mode                    : Constant\nBit rate                         : 448 Kbps\nChannel(s)                       : 6 channels\nChannel positions                : Front: L C R, Side: L R, LFE\nSampling rate                    : 48.0 KHz\nBit depth                        : 16 bits\nCompression mode                 : Lossy\nStream size                      : 286 MiB (20%)\nAlignment                        : Aligned on interleaves\nInterleave, duration             : 32 ms (0.80 video frame)\nInterleave, preload duration     : 32 ms\n\n","torrent":{"xt":"urn:btih:e8af0a8db8db1ec9b5c72ecc3cd3f477d952c85b","amp;dn":"Irene+Huss%2C+The+Shelter+Of+Shadows+2011+DVDrip+Swedish+Klam","amp;tr":["udp%3A%2F%2Ftracker.openbittorrent.com%3A80","udp%3A%2F%2Fopen.demonii.com%3A1337","udp%3A%2F%2Ftracker.coppersurfer.tk%3A6969","udp%3A%2F%2Fexodus.desync.com%3A6969"],"infoHash":"e8af0a8db8db1ec9b5c72ecc3cd3f477d952c85b","infoHashBuffer":{"type":"Buffer","data":[232,175,10,141,184,219,30,201,181,199,46,204,60,211,244,119,217,82,200,91]},"announce":[],"urlList":[]}}